<mxfile host="app.diagrams.net" modified="2020-11-27T18:08:52.599Z" agent="5.0 (Windows NT 10.0; Win64; x64) AppleWebKit/537.36 (KHTML, like Gecko) Chrome/86.0.4240.198 Safari/537.36" etag="fWQ7KeNJKrQ_t6gCebNQ" version="13.9.8" type="github">
  <diagram id="8kPyk9CtHJ3ouayvNRjG" name="Page-1">
    <mxGraphModel dx="868" dy="450" grid="1" gridSize="10" guides="1" tooltips="1" connect="1" arrows="1" fold="1" page="1" pageScale="1" pageWidth="850" pageHeight="1100" math="0" shadow="0">
      <root>
        <mxCell id="0" />
        <mxCell id="1" parent="0" />
        <mxCell id="nTxRkk9YgyZxzh8t0pmr-1" value="photographer" style="shape=table;startSize=30;container=1;collapsible=1;childLayout=tableLayout;fixedRows=1;rowLines=0;fontStyle=1;align=center;resizeLast=1;swimlaneFillColor=#ffffff;" vertex="1" parent="1">
          <mxGeometry x="70" y="285" width="180" height="250.0000000000001" as="geometry">
            <mxRectangle x="70" y="30" width="110" height="30" as="alternateBounds" />
          </mxGeometry>
        </mxCell>
        <mxCell id="nTxRkk9YgyZxzh8t0pmr-2" value="" style="shape=partialRectangle;collapsible=0;dropTarget=0;pointerEvents=0;fillColor=none;top=0;left=0;bottom=1;right=0;points=[[0,0.5],[1,0.5]];portConstraint=eastwest;" vertex="1" parent="nTxRkk9YgyZxzh8t0pmr-1">
          <mxGeometry y="30" width="180" height="30" as="geometry" />
        </mxCell>
        <mxCell id="nTxRkk9YgyZxzh8t0pmr-3" value="PK" style="shape=partialRectangle;connectable=0;fillColor=none;top=0;left=0;bottom=0;right=0;fontStyle=1;overflow=hidden;" vertex="1" parent="nTxRkk9YgyZxzh8t0pmr-2">
          <mxGeometry width="30" height="30" as="geometry" />
        </mxCell>
        <mxCell id="nTxRkk9YgyZxzh8t0pmr-4" value="photographer_id" style="shape=partialRectangle;connectable=0;fillColor=none;top=0;left=0;bottom=0;right=0;align=left;spacingLeft=6;fontStyle=5;overflow=hidden;" vertex="1" parent="nTxRkk9YgyZxzh8t0pmr-2">
          <mxGeometry x="30" width="150" height="30" as="geometry" />
        </mxCell>
        <mxCell id="nTxRkk9YgyZxzh8t0pmr-5" value="" style="shape=partialRectangle;collapsible=0;dropTarget=0;pointerEvents=0;fillColor=none;top=0;left=0;bottom=0;right=0;points=[[0,0.5],[1,0.5]];portConstraint=eastwest;" vertex="1" parent="nTxRkk9YgyZxzh8t0pmr-1">
          <mxGeometry y="60" width="180" height="30" as="geometry" />
        </mxCell>
        <mxCell id="nTxRkk9YgyZxzh8t0pmr-6" value="FK" style="shape=partialRectangle;connectable=0;fillColor=none;top=0;left=0;bottom=0;right=0;editable=1;overflow=hidden;" vertex="1" parent="nTxRkk9YgyZxzh8t0pmr-5">
          <mxGeometry width="30" height="30" as="geometry" />
        </mxCell>
        <mxCell id="nTxRkk9YgyZxzh8t0pmr-7" value="camera" style="shape=partialRectangle;connectable=0;fillColor=none;top=0;left=0;bottom=0;right=0;align=left;spacingLeft=6;overflow=hidden;" vertex="1" parent="nTxRkk9YgyZxzh8t0pmr-5">
          <mxGeometry x="30" width="150" height="30" as="geometry" />
        </mxCell>
        <mxCell id="nTxRkk9YgyZxzh8t0pmr-8" value="" style="shape=partialRectangle;collapsible=0;dropTarget=0;pointerEvents=0;fillColor=none;top=0;left=0;bottom=0;right=0;points=[[0,0.5],[1,0.5]];portConstraint=eastwest;" vertex="1" parent="nTxRkk9YgyZxzh8t0pmr-1">
          <mxGeometry y="90" width="180" height="30" as="geometry" />
        </mxCell>
        <mxCell id="nTxRkk9YgyZxzh8t0pmr-9" value="" style="shape=partialRectangle;connectable=0;fillColor=none;top=0;left=0;bottom=0;right=0;editable=1;overflow=hidden;" vertex="1" parent="nTxRkk9YgyZxzh8t0pmr-8">
          <mxGeometry width="30" height="30" as="geometry" />
        </mxCell>
        <mxCell id="nTxRkk9YgyZxzh8t0pmr-10" value="name" style="shape=partialRectangle;connectable=0;fillColor=none;top=0;left=0;bottom=0;right=0;align=left;spacingLeft=6;overflow=hidden;" vertex="1" parent="nTxRkk9YgyZxzh8t0pmr-8">
          <mxGeometry x="30" width="150" height="30" as="geometry" />
        </mxCell>
        <mxCell id="nTxRkk9YgyZxzh8t0pmr-11" value="" style="shape=partialRectangle;collapsible=0;dropTarget=0;pointerEvents=0;fillColor=none;top=0;left=0;bottom=0;right=0;points=[[0,0.5],[1,0.5]];portConstraint=eastwest;" vertex="1" parent="nTxRkk9YgyZxzh8t0pmr-1">
          <mxGeometry y="120" width="180" height="30" as="geometry" />
        </mxCell>
        <mxCell id="nTxRkk9YgyZxzh8t0pmr-12" value="" style="shape=partialRectangle;connectable=0;fillColor=none;top=0;left=0;bottom=0;right=0;editable=1;overflow=hidden;" vertex="1" parent="nTxRkk9YgyZxzh8t0pmr-11">
          <mxGeometry width="30" height="30" as="geometry" />
        </mxCell>
        <mxCell id="nTxRkk9YgyZxzh8t0pmr-13" value="nation" style="shape=partialRectangle;connectable=0;fillColor=none;top=0;left=0;bottom=0;right=0;align=left;spacingLeft=6;overflow=hidden;" vertex="1" parent="nTxRkk9YgyZxzh8t0pmr-11">
          <mxGeometry x="30" width="150" height="30" as="geometry" />
        </mxCell>
        <mxCell id="nTxRkk9YgyZxzh8t0pmr-14" value="" style="shape=partialRectangle;collapsible=0;dropTarget=0;pointerEvents=0;fillColor=none;top=0;left=0;bottom=0;right=0;points=[[0,0.5],[1,0.5]];portConstraint=eastwest;" vertex="1" parent="nTxRkk9YgyZxzh8t0pmr-1">
          <mxGeometry y="150" width="180" height="30" as="geometry" />
        </mxCell>
        <mxCell id="nTxRkk9YgyZxzh8t0pmr-15" value="" style="shape=partialRectangle;connectable=0;fillColor=none;top=0;left=0;bottom=0;right=0;editable=1;overflow=hidden;" vertex="1" parent="nTxRkk9YgyZxzh8t0pmr-14">
          <mxGeometry width="30" height="30" as="geometry" />
        </mxCell>
        <mxCell id="nTxRkk9YgyZxzh8t0pmr-16" value="style" style="shape=partialRectangle;connectable=0;fillColor=none;top=0;left=0;bottom=0;right=0;align=left;spacingLeft=6;overflow=hidden;" vertex="1" parent="nTxRkk9YgyZxzh8t0pmr-14">
          <mxGeometry x="30" width="150" height="30" as="geometry" />
        </mxCell>
        <mxCell id="nTxRkk9YgyZxzh8t0pmr-17" value="" style="shape=partialRectangle;collapsible=0;dropTarget=0;pointerEvents=0;fillColor=none;top=0;left=0;bottom=0;right=0;points=[[0,0.5],[1,0.5]];portConstraint=eastwest;" vertex="1" parent="nTxRkk9YgyZxzh8t0pmr-1">
          <mxGeometry y="180" width="180" height="30" as="geometry" />
        </mxCell>
        <mxCell id="nTxRkk9YgyZxzh8t0pmr-18" value="" style="shape=partialRectangle;connectable=0;fillColor=none;top=0;left=0;bottom=0;right=0;editable=1;overflow=hidden;" vertex="1" parent="nTxRkk9YgyZxzh8t0pmr-17">
          <mxGeometry width="30" height="30" as="geometry" />
        </mxCell>
        <mxCell id="nTxRkk9YgyZxzh8t0pmr-19" value="birth_year" style="shape=partialRectangle;connectable=0;fillColor=none;top=0;left=0;bottom=0;right=0;align=left;spacingLeft=6;overflow=hidden;" vertex="1" parent="nTxRkk9YgyZxzh8t0pmr-17">
          <mxGeometry x="30" width="150" height="30" as="geometry" />
        </mxCell>
        <mxCell id="nTxRkk9YgyZxzh8t0pmr-20" value="" style="shape=partialRectangle;collapsible=0;dropTarget=0;pointerEvents=0;fillColor=none;top=0;left=0;bottom=0;right=0;points=[[0,0.5],[1,0.5]];portConstraint=eastwest;" vertex="1" parent="nTxRkk9YgyZxzh8t0pmr-1">
          <mxGeometry y="210" width="180" height="30" as="geometry" />
        </mxCell>
        <mxCell id="nTxRkk9YgyZxzh8t0pmr-21" value="" style="shape=partialRectangle;connectable=0;fillColor=none;top=0;left=0;bottom=0;right=0;editable=1;overflow=hidden;" vertex="1" parent="nTxRkk9YgyZxzh8t0pmr-20">
          <mxGeometry width="30" height="30" as="geometry" />
        </mxCell>
        <mxCell id="nTxRkk9YgyZxzh8t0pmr-22" value="major" style="shape=partialRectangle;connectable=0;fillColor=none;top=0;left=0;bottom=0;right=0;align=left;spacingLeft=6;overflow=hidden;" vertex="1" parent="nTxRkk9YgyZxzh8t0pmr-20">
          <mxGeometry x="30" width="150" height="30" as="geometry" />
        </mxCell>
        <mxCell id="nTxRkk9YgyZxzh8t0pmr-23" value="camera" style="shape=table;startSize=30;container=1;collapsible=1;childLayout=tableLayout;fixedRows=1;rowLines=0;fontStyle=1;align=center;resizeLast=1;swimlaneFillColor=#ffffff;" vertex="1" parent="1">
          <mxGeometry x="70" y="60" width="180" height="160" as="geometry" />
        </mxCell>
        <mxCell id="nTxRkk9YgyZxzh8t0pmr-24" value="" style="shape=partialRectangle;collapsible=0;dropTarget=0;pointerEvents=0;fillColor=none;top=0;left=0;bottom=1;right=0;points=[[0,0.5],[1,0.5]];portConstraint=eastwest;" vertex="1" parent="nTxRkk9YgyZxzh8t0pmr-23">
          <mxGeometry y="30" width="180" height="30" as="geometry" />
        </mxCell>
        <mxCell id="nTxRkk9YgyZxzh8t0pmr-25" value="PK" style="shape=partialRectangle;connectable=0;fillColor=none;top=0;left=0;bottom=0;right=0;fontStyle=1;overflow=hidden;" vertex="1" parent="nTxRkk9YgyZxzh8t0pmr-24">
          <mxGeometry width="30" height="30" as="geometry" />
        </mxCell>
        <mxCell id="nTxRkk9YgyZxzh8t0pmr-26" value="model" style="shape=partialRectangle;connectable=0;fillColor=none;top=0;left=0;bottom=0;right=0;align=left;spacingLeft=6;fontStyle=5;overflow=hidden;" vertex="1" parent="nTxRkk9YgyZxzh8t0pmr-24">
          <mxGeometry x="30" width="150" height="30" as="geometry" />
        </mxCell>
        <mxCell id="nTxRkk9YgyZxzh8t0pmr-27" value="" style="shape=partialRectangle;collapsible=0;dropTarget=0;pointerEvents=0;fillColor=none;top=0;left=0;bottom=0;right=0;points=[[0,0.5],[1,0.5]];portConstraint=eastwest;" vertex="1" parent="nTxRkk9YgyZxzh8t0pmr-23">
          <mxGeometry y="60" width="180" height="30" as="geometry" />
        </mxCell>
        <mxCell id="nTxRkk9YgyZxzh8t0pmr-28" value="" style="shape=partialRectangle;connectable=0;fillColor=none;top=0;left=0;bottom=0;right=0;editable=1;overflow=hidden;" vertex="1" parent="nTxRkk9YgyZxzh8t0pmr-27">
          <mxGeometry width="30" height="30" as="geometry" />
        </mxCell>
        <mxCell id="nTxRkk9YgyZxzh8t0pmr-29" value="brand" style="shape=partialRectangle;connectable=0;fillColor=none;top=0;left=0;bottom=0;right=0;align=left;spacingLeft=6;overflow=hidden;" vertex="1" parent="nTxRkk9YgyZxzh8t0pmr-27">
          <mxGeometry x="30" width="150" height="30" as="geometry" />
        </mxCell>
        <mxCell id="nTxRkk9YgyZxzh8t0pmr-30" value="" style="shape=partialRectangle;collapsible=0;dropTarget=0;pointerEvents=0;fillColor=none;top=0;left=0;bottom=0;right=0;points=[[0,0.5],[1,0.5]];portConstraint=eastwest;" vertex="1" parent="nTxRkk9YgyZxzh8t0pmr-23">
          <mxGeometry y="90" width="180" height="30" as="geometry" />
        </mxCell>
        <mxCell id="nTxRkk9YgyZxzh8t0pmr-31" value="" style="shape=partialRectangle;connectable=0;fillColor=none;top=0;left=0;bottom=0;right=0;editable=1;overflow=hidden;" vertex="1" parent="nTxRkk9YgyZxzh8t0pmr-30">
          <mxGeometry width="30" height="30" as="geometry" />
        </mxCell>
        <mxCell id="nTxRkk9YgyZxzh8t0pmr-32" value="production_year" style="shape=partialRectangle;connectable=0;fillColor=none;top=0;left=0;bottom=0;right=0;align=left;spacingLeft=6;overflow=hidden;" vertex="1" parent="nTxRkk9YgyZxzh8t0pmr-30">
          <mxGeometry x="30" width="150" height="30" as="geometry" />
        </mxCell>
        <mxCell id="nTxRkk9YgyZxzh8t0pmr-33" value="" style="shape=partialRectangle;collapsible=0;dropTarget=0;pointerEvents=0;fillColor=none;top=0;left=0;bottom=0;right=0;points=[[0,0.5],[1,0.5]];portConstraint=eastwest;" vertex="1" parent="nTxRkk9YgyZxzh8t0pmr-23">
          <mxGeometry y="120" width="180" height="30" as="geometry" />
        </mxCell>
        <mxCell id="nTxRkk9YgyZxzh8t0pmr-34" value="" style="shape=partialRectangle;connectable=0;fillColor=none;top=0;left=0;bottom=0;right=0;editable=1;overflow=hidden;" vertex="1" parent="nTxRkk9YgyZxzh8t0pmr-33">
          <mxGeometry width="30" height="30" as="geometry" />
        </mxCell>
        <mxCell id="nTxRkk9YgyZxzh8t0pmr-35" value="shot_num" style="shape=partialRectangle;connectable=0;fillColor=none;top=0;left=0;bottom=0;right=0;align=left;spacingLeft=6;overflow=hidden;" vertex="1" parent="nTxRkk9YgyZxzh8t0pmr-33">
          <mxGeometry x="30" width="150" height="30" as="geometry" />
        </mxCell>
        <mxCell id="nTxRkk9YgyZxzh8t0pmr-36" value="center" style="shape=table;startSize=30;container=1;collapsible=1;childLayout=tableLayout;fixedRows=1;rowLines=0;fontStyle=1;align=center;resizeLast=1;swimlaneFillColor=#ffffff;" vertex="1" parent="1">
          <mxGeometry x="570" y="375" width="180" height="160" as="geometry" />
        </mxCell>
        <mxCell id="nTxRkk9YgyZxzh8t0pmr-37" value="" style="shape=partialRectangle;collapsible=0;dropTarget=0;pointerEvents=0;fillColor=none;top=0;left=0;bottom=1;right=0;points=[[0,0.5],[1,0.5]];portConstraint=eastwest;" vertex="1" parent="nTxRkk9YgyZxzh8t0pmr-36">
          <mxGeometry y="30" width="180" height="30" as="geometry" />
        </mxCell>
        <mxCell id="nTxRkk9YgyZxzh8t0pmr-38" value="PK" style="shape=partialRectangle;connectable=0;fillColor=none;top=0;left=0;bottom=0;right=0;fontStyle=1;overflow=hidden;" vertex="1" parent="nTxRkk9YgyZxzh8t0pmr-37">
          <mxGeometry width="30" height="30" as="geometry" />
        </mxCell>
        <mxCell id="nTxRkk9YgyZxzh8t0pmr-39" value="center_name" style="shape=partialRectangle;connectable=0;fillColor=none;top=0;left=0;bottom=0;right=0;align=left;spacingLeft=6;fontStyle=5;overflow=hidden;" vertex="1" parent="nTxRkk9YgyZxzh8t0pmr-37">
          <mxGeometry x="30" width="150" height="30" as="geometry" />
        </mxCell>
        <mxCell id="nTxRkk9YgyZxzh8t0pmr-40" value="" style="shape=partialRectangle;collapsible=0;dropTarget=0;pointerEvents=0;fillColor=none;top=0;left=0;bottom=0;right=0;points=[[0,0.5],[1,0.5]];portConstraint=eastwest;" vertex="1" parent="nTxRkk9YgyZxzh8t0pmr-36">
          <mxGeometry y="60" width="180" height="30" as="geometry" />
        </mxCell>
        <mxCell id="nTxRkk9YgyZxzh8t0pmr-41" value="" style="shape=partialRectangle;connectable=0;fillColor=none;top=0;left=0;bottom=0;right=0;editable=1;overflow=hidden;" vertex="1" parent="nTxRkk9YgyZxzh8t0pmr-40">
          <mxGeometry width="30" height="30" as="geometry" />
        </mxCell>
        <mxCell id="nTxRkk9YgyZxzh8t0pmr-42" value="location" style="shape=partialRectangle;connectable=0;fillColor=none;top=0;left=0;bottom=0;right=0;align=left;spacingLeft=6;overflow=hidden;" vertex="1" parent="nTxRkk9YgyZxzh8t0pmr-40">
          <mxGeometry x="30" width="150" height="30" as="geometry" />
        </mxCell>
        <mxCell id="nTxRkk9YgyZxzh8t0pmr-43" value="" style="shape=partialRectangle;collapsible=0;dropTarget=0;pointerEvents=0;fillColor=none;top=0;left=0;bottom=0;right=0;points=[[0,0.5],[1,0.5]];portConstraint=eastwest;" vertex="1" parent="nTxRkk9YgyZxzh8t0pmr-36">
          <mxGeometry y="90" width="180" height="30" as="geometry" />
        </mxCell>
        <mxCell id="nTxRkk9YgyZxzh8t0pmr-44" value="" style="shape=partialRectangle;connectable=0;fillColor=none;top=0;left=0;bottom=0;right=0;editable=1;overflow=hidden;" vertex="1" parent="nTxRkk9YgyZxzh8t0pmr-43">
          <mxGeometry width="30" height="30" as="geometry" />
        </mxCell>
        <mxCell id="nTxRkk9YgyZxzh8t0pmr-45" value="foundation_year" style="shape=partialRectangle;connectable=0;fillColor=none;top=0;left=0;bottom=0;right=0;align=left;spacingLeft=6;overflow=hidden;" vertex="1" parent="nTxRkk9YgyZxzh8t0pmr-43">
          <mxGeometry x="30" width="150" height="30" as="geometry" />
        </mxCell>
        <mxCell id="nTxRkk9YgyZxzh8t0pmr-46" value="" style="shape=partialRectangle;collapsible=0;dropTarget=0;pointerEvents=0;fillColor=none;top=0;left=0;bottom=0;right=0;points=[[0,0.5],[1,0.5]];portConstraint=eastwest;" vertex="1" parent="nTxRkk9YgyZxzh8t0pmr-36">
          <mxGeometry y="120" width="180" height="30" as="geometry" />
        </mxCell>
        <mxCell id="nTxRkk9YgyZxzh8t0pmr-47" value="" style="shape=partialRectangle;connectable=0;fillColor=none;top=0;left=0;bottom=0;right=0;editable=1;overflow=hidden;" vertex="1" parent="nTxRkk9YgyZxzh8t0pmr-46">
          <mxGeometry width="30" height="30" as="geometry" />
        </mxCell>
        <mxCell id="nTxRkk9YgyZxzh8t0pmr-48" value="speciality" style="shape=partialRectangle;connectable=0;fillColor=none;top=0;left=0;bottom=0;right=0;align=left;spacingLeft=6;overflow=hidden;" vertex="1" parent="nTxRkk9YgyZxzh8t0pmr-46">
          <mxGeometry x="30" width="150" height="30" as="geometry" />
        </mxCell>
        <mxCell id="nTxRkk9YgyZxzh8t0pmr-49" value="photo" style="shape=table;startSize=30;container=1;collapsible=1;childLayout=tableLayout;fixedRows=1;rowLines=0;fontStyle=1;align=center;resizeLast=1;swimlaneFillColor=#ffffff;" vertex="1" parent="1">
          <mxGeometry x="570" y="60" width="180" height="280" as="geometry" />
        </mxCell>
        <mxCell id="nTxRkk9YgyZxzh8t0pmr-50" value="" style="shape=partialRectangle;collapsible=0;dropTarget=0;pointerEvents=0;fillColor=none;top=0;left=0;bottom=1;right=0;points=[[0,0.5],[1,0.5]];portConstraint=eastwest;" vertex="1" parent="nTxRkk9YgyZxzh8t0pmr-49">
          <mxGeometry y="30" width="180" height="30" as="geometry" />
        </mxCell>
        <mxCell id="nTxRkk9YgyZxzh8t0pmr-51" value="PK" style="shape=partialRectangle;connectable=0;fillColor=none;top=0;left=0;bottom=0;right=0;fontStyle=1;overflow=hidden;" vertex="1" parent="nTxRkk9YgyZxzh8t0pmr-50">
          <mxGeometry width="30" height="30" as="geometry" />
        </mxCell>
        <mxCell id="nTxRkk9YgyZxzh8t0pmr-52" value="photo_id" style="shape=partialRectangle;connectable=0;fillColor=none;top=0;left=0;bottom=0;right=0;align=left;spacingLeft=6;fontStyle=5;overflow=hidden;" vertex="1" parent="nTxRkk9YgyZxzh8t0pmr-50">
          <mxGeometry x="30" width="150" height="30" as="geometry" />
        </mxCell>
        <mxCell id="nTxRkk9YgyZxzh8t0pmr-53" value="" style="shape=partialRectangle;collapsible=0;dropTarget=0;pointerEvents=0;fillColor=none;top=0;left=0;bottom=0;right=0;points=[[0,0.5],[1,0.5]];portConstraint=eastwest;" vertex="1" parent="nTxRkk9YgyZxzh8t0pmr-49">
          <mxGeometry y="60" width="180" height="30" as="geometry" />
        </mxCell>
        <mxCell id="nTxRkk9YgyZxzh8t0pmr-54" value="FK" style="shape=partialRectangle;connectable=0;fillColor=none;top=0;left=0;bottom=0;right=0;editable=1;overflow=hidden;" vertex="1" parent="nTxRkk9YgyZxzh8t0pmr-53">
          <mxGeometry width="30" height="30" as="geometry" />
        </mxCell>
        <mxCell id="nTxRkk9YgyZxzh8t0pmr-55" value="photographer_id" style="shape=partialRectangle;connectable=0;fillColor=none;top=0;left=0;bottom=0;right=0;align=left;spacingLeft=6;overflow=hidden;" vertex="1" parent="nTxRkk9YgyZxzh8t0pmr-53">
          <mxGeometry x="30" width="150" height="30" as="geometry" />
        </mxCell>
        <mxCell id="nTxRkk9YgyZxzh8t0pmr-56" value="" style="shape=partialRectangle;collapsible=0;dropTarget=0;pointerEvents=0;fillColor=none;top=0;left=0;bottom=0;right=0;points=[[0,0.5],[1,0.5]];portConstraint=eastwest;" vertex="1" parent="nTxRkk9YgyZxzh8t0pmr-49">
          <mxGeometry y="90" width="180" height="30" as="geometry" />
        </mxCell>
        <mxCell id="nTxRkk9YgyZxzh8t0pmr-57" value="FK" style="shape=partialRectangle;connectable=0;fillColor=none;top=0;left=0;bottom=0;right=0;editable=1;overflow=hidden;" vertex="1" parent="nTxRkk9YgyZxzh8t0pmr-56">
          <mxGeometry width="30" height="30" as="geometry" />
        </mxCell>
        <mxCell id="nTxRkk9YgyZxzh8t0pmr-58" value="center_name" style="shape=partialRectangle;connectable=0;fillColor=none;top=0;left=0;bottom=0;right=0;align=left;spacingLeft=6;overflow=hidden;" vertex="1" parent="nTxRkk9YgyZxzh8t0pmr-56">
          <mxGeometry x="30" width="150" height="30" as="geometry" />
        </mxCell>
        <mxCell id="nTxRkk9YgyZxzh8t0pmr-59" value="" style="shape=partialRectangle;collapsible=0;dropTarget=0;pointerEvents=0;fillColor=none;top=0;left=0;bottom=0;right=0;points=[[0,0.5],[1,0.5]];portConstraint=eastwest;" vertex="1" parent="nTxRkk9YgyZxzh8t0pmr-49">
          <mxGeometry y="120" width="180" height="30" as="geometry" />
        </mxCell>
        <mxCell id="nTxRkk9YgyZxzh8t0pmr-60" value="" style="shape=partialRectangle;connectable=0;fillColor=none;top=0;left=0;bottom=0;right=0;editable=1;overflow=hidden;" vertex="1" parent="nTxRkk9YgyZxzh8t0pmr-59">
          <mxGeometry width="30" height="30" as="geometry" />
        </mxCell>
        <mxCell id="nTxRkk9YgyZxzh8t0pmr-61" value="title" style="shape=partialRectangle;connectable=0;fillColor=none;top=0;left=0;bottom=0;right=0;align=left;spacingLeft=6;overflow=hidden;" vertex="1" parent="nTxRkk9YgyZxzh8t0pmr-59">
          <mxGeometry x="30" width="150" height="30" as="geometry" />
        </mxCell>
        <mxCell id="nTxRkk9YgyZxzh8t0pmr-62" value="" style="shape=partialRectangle;collapsible=0;dropTarget=0;pointerEvents=0;fillColor=none;top=0;left=0;bottom=0;right=0;points=[[0,0.5],[1,0.5]];portConstraint=eastwest;" vertex="1" parent="nTxRkk9YgyZxzh8t0pmr-49">
          <mxGeometry y="150" width="180" height="30" as="geometry" />
        </mxCell>
        <mxCell id="nTxRkk9YgyZxzh8t0pmr-63" value="" style="shape=partialRectangle;connectable=0;fillColor=none;top=0;left=0;bottom=0;right=0;editable=1;overflow=hidden;" vertex="1" parent="nTxRkk9YgyZxzh8t0pmr-62">
          <mxGeometry width="30" height="30" as="geometry" />
        </mxCell>
        <mxCell id="nTxRkk9YgyZxzh8t0pmr-64" value="location" style="shape=partialRectangle;connectable=0;fillColor=none;top=0;left=0;bottom=0;right=0;align=left;spacingLeft=6;overflow=hidden;" vertex="1" parent="nTxRkk9YgyZxzh8t0pmr-62">
          <mxGeometry x="30" width="150" height="30" as="geometry" />
        </mxCell>
        <mxCell id="nTxRkk9YgyZxzh8t0pmr-65" value="" style="shape=partialRectangle;collapsible=0;dropTarget=0;pointerEvents=0;fillColor=none;top=0;left=0;bottom=0;right=0;points=[[0,0.5],[1,0.5]];portConstraint=eastwest;" vertex="1" parent="nTxRkk9YgyZxzh8t0pmr-49">
          <mxGeometry y="180" width="180" height="30" as="geometry" />
        </mxCell>
        <mxCell id="nTxRkk9YgyZxzh8t0pmr-66" value="" style="shape=partialRectangle;connectable=0;fillColor=none;top=0;left=0;bottom=0;right=0;editable=1;overflow=hidden;" vertex="1" parent="nTxRkk9YgyZxzh8t0pmr-65">
          <mxGeometry width="30" height="30" as="geometry" />
        </mxCell>
        <mxCell id="nTxRkk9YgyZxzh8t0pmr-67" value="date" style="shape=partialRectangle;connectable=0;fillColor=none;top=0;left=0;bottom=0;right=0;align=left;spacingLeft=6;overflow=hidden;" vertex="1" parent="nTxRkk9YgyZxzh8t0pmr-65">
          <mxGeometry x="30" width="150" height="30" as="geometry" />
        </mxCell>
        <mxCell id="nTxRkk9YgyZxzh8t0pmr-68" value="" style="shape=partialRectangle;collapsible=0;dropTarget=0;pointerEvents=0;fillColor=none;top=0;left=0;bottom=0;right=0;points=[[0,0.5],[1,0.5]];portConstraint=eastwest;" vertex="1" parent="nTxRkk9YgyZxzh8t0pmr-49">
          <mxGeometry y="210" width="180" height="30" as="geometry" />
        </mxCell>
        <mxCell id="nTxRkk9YgyZxzh8t0pmr-69" value="" style="shape=partialRectangle;connectable=0;fillColor=none;top=0;left=0;bottom=0;right=0;editable=1;overflow=hidden;" vertex="1" parent="nTxRkk9YgyZxzh8t0pmr-68">
          <mxGeometry width="30" height="30" as="geometry" />
        </mxCell>
        <mxCell id="nTxRkk9YgyZxzh8t0pmr-70" value="subject" style="shape=partialRectangle;connectable=0;fillColor=none;top=0;left=0;bottom=0;right=0;align=left;spacingLeft=6;overflow=hidden;" vertex="1" parent="nTxRkk9YgyZxzh8t0pmr-68">
          <mxGeometry x="30" width="150" height="30" as="geometry" />
        </mxCell>
        <mxCell id="nTxRkk9YgyZxzh8t0pmr-71" value="" style="shape=partialRectangle;collapsible=0;dropTarget=0;pointerEvents=0;fillColor=none;top=0;left=0;bottom=0;right=0;points=[[0,0.5],[1,0.5]];portConstraint=eastwest;" vertex="1" parent="nTxRkk9YgyZxzh8t0pmr-49">
          <mxGeometry y="240" width="180" height="30" as="geometry" />
        </mxCell>
        <mxCell id="nTxRkk9YgyZxzh8t0pmr-72" value="" style="shape=partialRectangle;connectable=0;fillColor=none;top=0;left=0;bottom=0;right=0;editable=1;overflow=hidden;" vertex="1" parent="nTxRkk9YgyZxzh8t0pmr-71">
          <mxGeometry width="30" height="30" as="geometry" />
        </mxCell>
        <mxCell id="nTxRkk9YgyZxzh8t0pmr-73" value="file" style="shape=partialRectangle;connectable=0;fillColor=none;top=0;left=0;bottom=0;right=0;align=left;spacingLeft=6;overflow=hidden;" vertex="1" parent="nTxRkk9YgyZxzh8t0pmr-71">
          <mxGeometry x="30" width="150" height="30" as="geometry" />
        </mxCell>
        <mxCell id="nTxRkk9YgyZxzh8t0pmr-74" value="" style="edgeStyle=elbowEdgeStyle;fontSize=12;html=1;endArrow=ERoneToMany;exitX=1;exitY=0.5;exitDx=0;exitDy=0;entryX=0;entryY=0.5;entryDx=0;entryDy=0;" edge="1" parent="1" source="nTxRkk9YgyZxzh8t0pmr-2" target="nTxRkk9YgyZxzh8t0pmr-53">
          <mxGeometry width="100" height="100" relative="1" as="geometry">
            <mxPoint x="400" y="605" as="sourcePoint" />
            <mxPoint x="500" y="505" as="targetPoint" />
            <Array as="points">
              <mxPoint x="540" y="235" />
            </Array>
          </mxGeometry>
        </mxCell>
        <mxCell id="nTxRkk9YgyZxzh8t0pmr-75" value="award" style="shape=table;startSize=30;container=1;collapsible=1;childLayout=tableLayout;fixedRows=1;rowLines=0;fontStyle=1;align=center;resizeLast=1;swimlaneFillColor=#ffffff;" vertex="1" parent="1">
          <mxGeometry x="300" y="60" width="180" height="190" as="geometry" />
        </mxCell>
        <mxCell id="nTxRkk9YgyZxzh8t0pmr-76" value="" style="shape=partialRectangle;collapsible=0;dropTarget=0;pointerEvents=0;fillColor=none;top=0;left=0;bottom=1;right=0;points=[[0,0.5],[1,0.5]];portConstraint=eastwest;" vertex="1" parent="nTxRkk9YgyZxzh8t0pmr-75">
          <mxGeometry y="30" width="180" height="30" as="geometry" />
        </mxCell>
        <mxCell id="nTxRkk9YgyZxzh8t0pmr-77" value="PK" style="shape=partialRectangle;connectable=0;fillColor=none;top=0;left=0;bottom=0;right=0;fontStyle=1;overflow=hidden;" vertex="1" parent="nTxRkk9YgyZxzh8t0pmr-76">
          <mxGeometry width="30" height="30" as="geometry" />
        </mxCell>
        <mxCell id="nTxRkk9YgyZxzh8t0pmr-78" value="name" style="shape=partialRectangle;connectable=0;fillColor=none;top=0;left=0;bottom=0;right=0;align=left;spacingLeft=6;fontStyle=5;overflow=hidden;" vertex="1" parent="nTxRkk9YgyZxzh8t0pmr-76">
          <mxGeometry x="30" width="150" height="30" as="geometry" />
        </mxCell>
        <mxCell id="nTxRkk9YgyZxzh8t0pmr-79" value="" style="shape=partialRectangle;collapsible=0;dropTarget=0;pointerEvents=0;fillColor=none;top=0;left=0;bottom=0;right=0;points=[[0,0.5],[1,0.5]];portConstraint=eastwest;" vertex="1" parent="nTxRkk9YgyZxzh8t0pmr-75">
          <mxGeometry y="60" width="180" height="30" as="geometry" />
        </mxCell>
        <mxCell id="nTxRkk9YgyZxzh8t0pmr-80" value="" style="shape=partialRectangle;connectable=0;fillColor=none;top=0;left=0;bottom=0;right=0;editable=1;overflow=hidden;" vertex="1" parent="nTxRkk9YgyZxzh8t0pmr-79">
          <mxGeometry width="30" height="30" as="geometry" />
        </mxCell>
        <mxCell id="nTxRkk9YgyZxzh8t0pmr-81" value="organization" style="shape=partialRectangle;connectable=0;fillColor=none;top=0;left=0;bottom=0;right=0;align=left;spacingLeft=6;overflow=hidden;" vertex="1" parent="nTxRkk9YgyZxzh8t0pmr-79">
          <mxGeometry x="30" width="150" height="30" as="geometry" />
        </mxCell>
        <mxCell id="nTxRkk9YgyZxzh8t0pmr-82" value="" style="shape=partialRectangle;collapsible=0;dropTarget=0;pointerEvents=0;fillColor=none;top=0;left=0;bottom=0;right=0;points=[[0,0.5],[1,0.5]];portConstraint=eastwest;" vertex="1" parent="nTxRkk9YgyZxzh8t0pmr-75">
          <mxGeometry y="90" width="180" height="30" as="geometry" />
        </mxCell>
        <mxCell id="nTxRkk9YgyZxzh8t0pmr-83" value="" style="shape=partialRectangle;connectable=0;fillColor=none;top=0;left=0;bottom=0;right=0;editable=1;overflow=hidden;" vertex="1" parent="nTxRkk9YgyZxzh8t0pmr-82">
          <mxGeometry width="30" height="30" as="geometry" />
        </mxCell>
        <mxCell id="nTxRkk9YgyZxzh8t0pmr-84" value="date" style="shape=partialRectangle;connectable=0;fillColor=none;top=0;left=0;bottom=0;right=0;align=left;spacingLeft=6;overflow=hidden;" vertex="1" parent="nTxRkk9YgyZxzh8t0pmr-82">
          <mxGeometry x="30" width="150" height="30" as="geometry" />
        </mxCell>
        <mxCell id="nTxRkk9YgyZxzh8t0pmr-85" value="" style="shape=partialRectangle;collapsible=0;dropTarget=0;pointerEvents=0;fillColor=none;top=0;left=0;bottom=0;right=0;points=[[0,0.5],[1,0.5]];portConstraint=eastwest;" vertex="1" parent="nTxRkk9YgyZxzh8t0pmr-75">
          <mxGeometry y="120" width="180" height="30" as="geometry" />
        </mxCell>
        <mxCell id="nTxRkk9YgyZxzh8t0pmr-86" value="" style="shape=partialRectangle;connectable=0;fillColor=none;top=0;left=0;bottom=0;right=0;editable=1;overflow=hidden;" vertex="1" parent="nTxRkk9YgyZxzh8t0pmr-85">
          <mxGeometry width="30" height="30" as="geometry" />
        </mxCell>
        <mxCell id="nTxRkk9YgyZxzh8t0pmr-87" value="value" style="shape=partialRectangle;connectable=0;fillColor=none;top=0;left=0;bottom=0;right=0;align=left;spacingLeft=6;overflow=hidden;" vertex="1" parent="nTxRkk9YgyZxzh8t0pmr-85">
          <mxGeometry x="30" width="150" height="30" as="geometry" />
        </mxCell>
        <mxCell id="nTxRkk9YgyZxzh8t0pmr-88" value="" style="shape=partialRectangle;collapsible=0;dropTarget=0;pointerEvents=0;fillColor=none;top=0;left=0;bottom=0;right=0;points=[[0,0.5],[1,0.5]];portConstraint=eastwest;" vertex="1" parent="nTxRkk9YgyZxzh8t0pmr-75">
          <mxGeometry y="150" width="180" height="30" as="geometry" />
        </mxCell>
        <mxCell id="nTxRkk9YgyZxzh8t0pmr-89" value="FK" style="shape=partialRectangle;connectable=0;fillColor=none;top=0;left=0;bottom=0;right=0;editable=1;overflow=hidden;" vertex="1" parent="nTxRkk9YgyZxzh8t0pmr-88">
          <mxGeometry width="30" height="30" as="geometry" />
        </mxCell>
        <mxCell id="nTxRkk9YgyZxzh8t0pmr-90" value="photo_id" style="shape=partialRectangle;connectable=0;fillColor=none;top=0;left=0;bottom=0;right=0;align=left;spacingLeft=6;overflow=hidden;" vertex="1" parent="nTxRkk9YgyZxzh8t0pmr-88">
          <mxGeometry x="30" width="150" height="30" as="geometry" />
        </mxCell>
        <mxCell id="nTxRkk9YgyZxzh8t0pmr-91" value="" style="edgeStyle=orthogonalEdgeStyle;fontSize=12;html=1;endArrow=ERoneToMany;entryX=1;entryY=0.5;entryDx=0;entryDy=0;exitX=1;exitY=0.5;exitDx=0;exitDy=0;" edge="1" parent="1" source="nTxRkk9YgyZxzh8t0pmr-37" target="nTxRkk9YgyZxzh8t0pmr-56">
          <mxGeometry width="100" height="100" relative="1" as="geometry">
            <mxPoint x="500" y="425" as="sourcePoint" />
            <mxPoint x="590" y="455" as="targetPoint" />
            <Array as="points">
              <mxPoint x="790" y="420" />
              <mxPoint x="790" y="165" />
            </Array>
          </mxGeometry>
        </mxCell>
        <mxCell id="nTxRkk9YgyZxzh8t0pmr-92" value="" style="edgeStyle=elbowEdgeStyle;fontSize=12;html=1;endArrow=ERoneToMany;exitX=0;exitY=0.5;exitDx=0;exitDy=0;entryX=1;entryY=0.5;entryDx=0;entryDy=0;" edge="1" parent="1" source="nTxRkk9YgyZxzh8t0pmr-50" target="nTxRkk9YgyZxzh8t0pmr-88">
          <mxGeometry width="100" height="100" relative="1" as="geometry">
            <mxPoint x="259.9999999999998" y="340" as="sourcePoint" />
            <mxPoint x="600" y="145" as="targetPoint" />
            <Array as="points">
              <mxPoint x="510" y="195" />
            </Array>
          </mxGeometry>
        </mxCell>
        <mxCell id="nTxRkk9YgyZxzh8t0pmr-93" value="cooperation" style="shape=table;startSize=30;container=1;collapsible=1;childLayout=tableLayout;fixedRows=1;rowLines=0;fontStyle=1;align=center;resizeLast=1;fillColor=#ffffff;" vertex="1" parent="1">
          <mxGeometry x="310" y="400" width="180" height="100" as="geometry" />
        </mxCell>
        <mxCell id="nTxRkk9YgyZxzh8t0pmr-94" value="" style="shape=partialRectangle;collapsible=0;dropTarget=0;pointerEvents=0;fillColor=none;top=0;left=0;bottom=0;right=0;points=[[0,0.5],[1,0.5]];portConstraint=eastwest;" vertex="1" parent="nTxRkk9YgyZxzh8t0pmr-93">
          <mxGeometry y="30" width="180" height="30" as="geometry" />
        </mxCell>
        <mxCell id="nTxRkk9YgyZxzh8t0pmr-95" value="PK,FK1" style="shape=partialRectangle;connectable=0;fillColor=none;top=0;left=0;bottom=0;right=0;fontStyle=1;overflow=hidden;" vertex="1" parent="nTxRkk9YgyZxzh8t0pmr-94">
          <mxGeometry width="60" height="30" as="geometry" />
        </mxCell>
        <mxCell id="nTxRkk9YgyZxzh8t0pmr-96" value="photographer_id" style="shape=partialRectangle;connectable=0;fillColor=none;top=0;left=0;bottom=0;right=0;align=left;spacingLeft=6;fontStyle=5;overflow=hidden;" vertex="1" parent="nTxRkk9YgyZxzh8t0pmr-94">
          <mxGeometry x="60" width="120" height="30" as="geometry" />
        </mxCell>
        <mxCell id="nTxRkk9YgyZxzh8t0pmr-97" value="" style="shape=partialRectangle;collapsible=0;dropTarget=0;pointerEvents=0;fillColor=none;top=0;left=0;bottom=1;right=0;points=[[0,0.5],[1,0.5]];portConstraint=eastwest;" vertex="1" parent="nTxRkk9YgyZxzh8t0pmr-93">
          <mxGeometry y="60" width="180" height="30" as="geometry" />
        </mxCell>
        <mxCell id="nTxRkk9YgyZxzh8t0pmr-98" value="PK,FK2" style="shape=partialRectangle;connectable=0;fillColor=none;top=0;left=0;bottom=0;right=0;fontStyle=1;overflow=hidden;" vertex="1" parent="nTxRkk9YgyZxzh8t0pmr-97">
          <mxGeometry width="60" height="30" as="geometry" />
        </mxCell>
        <mxCell id="nTxRkk9YgyZxzh8t0pmr-99" value="center_name" style="shape=partialRectangle;connectable=0;fillColor=none;top=0;left=0;bottom=0;right=0;align=left;spacingLeft=6;fontStyle=5;overflow=hidden;" vertex="1" parent="nTxRkk9YgyZxzh8t0pmr-97">
          <mxGeometry x="60" width="120" height="30" as="geometry" />
        </mxCell>
        <mxCell id="nTxRkk9YgyZxzh8t0pmr-100" value="" style="edgeStyle=orthogonalEdgeStyle;fontSize=12;html=1;endArrow=ERoneToMany;exitX=0;exitY=0.5;exitDx=0;exitDy=0;entryX=0;entryY=0.5;entryDx=0;entryDy=0;" edge="1" parent="1" source="nTxRkk9YgyZxzh8t0pmr-24" target="nTxRkk9YgyZxzh8t0pmr-2">
          <mxGeometry width="100" height="100" relative="1" as="geometry">
            <mxPoint x="370" y="360" as="sourcePoint" />
            <mxPoint x="470" y="260" as="targetPoint" />
            <Array as="points">
              <mxPoint x="50" y="105" />
              <mxPoint x="50" y="330" />
            </Array>
          </mxGeometry>
        </mxCell>
        <mxCell id="nTxRkk9YgyZxzh8t0pmr-101" value="" style="edgeStyle=entityRelationEdgeStyle;fontSize=12;html=1;endArrow=ERoneToMany;exitX=1;exitY=0.5;exitDx=0;exitDy=0;entryX=0;entryY=0.5;entryDx=0;entryDy=0;" edge="1" parent="1" source="nTxRkk9YgyZxzh8t0pmr-2" target="nTxRkk9YgyZxzh8t0pmr-94">
          <mxGeometry width="100" height="100" relative="1" as="geometry">
            <mxPoint x="370" y="360" as="sourcePoint" />
            <mxPoint x="470" y="260" as="targetPoint" />
          </mxGeometry>
        </mxCell>
        <mxCell id="nTxRkk9YgyZxzh8t0pmr-102" value="" style="edgeStyle=entityRelationEdgeStyle;fontSize=12;html=1;endArrow=ERoneToMany;exitX=0;exitY=0.5;exitDx=0;exitDy=0;entryX=1;entryY=0.5;entryDx=0;entryDy=0;" edge="1" parent="1" source="nTxRkk9YgyZxzh8t0pmr-37" target="nTxRkk9YgyZxzh8t0pmr-97">
          <mxGeometry width="100" height="100" relative="1" as="geometry">
            <mxPoint x="370" y="360" as="sourcePoint" />
            <mxPoint x="470" y="260" as="targetPoint" />
          </mxGeometry>
        </mxCell>
      </root>
    </mxGraphModel>
  </diagram>
</mxfile>
